<?xml version="1.0" encoding="utf-8"?>
<?xml-stylesheet type="text/xsl" href="rss1.xsl"?>
<rss version="2.0" xmlns:atom="http://www.w3.org/2005/Atom" xmlns:content="http://purl.org/rss/1.0/modules/content/" xmlns:dc="http://purl.org/dc/elements/1.1/" xmlns:media="http://search.yahoo.com/mrss/">
<channel>
 <title>Getty</title>
 <link>http://www.gettyimg.com/</link>
 <atom:link href="http://www.gettyimg.com/" rel="self" type="application/rss+xml" />

 
                <item>
                <title><![CDATA[【HD Live Performances】HDTV - Pinkpop 2023 - Day 2 - Robbie Williams, Tove Lo, Queens Of The Stone Age, The Script, Tove Lo HDTV H264 1080i MP2-ilya2129]]></title>
                <link><![CDATA[https://sharemania.us/threads/pinkpop-2023-day-2-robbie-williams-tove-lo-queens-of-the-stone-age-the-script-tove-lo-hdtv-h264-1080i-mp2-ilya2129.222888/]]></link>
                <description><![CDATA[<article>
<blockquote class="messageText SelectQuoteContainer ugc baseHtml">
<div style="text-align: center"><img src="https://i122.fastpic.org/big/2023/0618/24/92268286095ef0b70f0d6f0a6356e424.png?r=1" class="bbCodeImage LbImage" alt="[​IMG]" data-url="https://i122.fastpic.org/big/2023/0618/24/92268286095ef0b70f0d6f0a6356e424.png?r=1" style=""><br>
<br>
<a href="https://postimg.cc/9R9gBC8L" target="_blank" class="externalLink" rel="nofollow"><img src="https://i.postimg.cc/9R9gBC8L/vlcsnap-2023-06-18-11h40m18s723.png" class="bbCodeImage LbImage" alt="[​IMG]" data-url="https://i.postimg.cc/9R9gBC8L/vlcsnap-2023-06-18-11h40m18s723.png"></a> <a href="https://postimg.cc/87FYCRd8" target="_blank" class="externalLink" rel="nofollow"><img src="https://i.postimg.cc/87FYCRd8/vlcsnap-2023-06-18-11h42m09s555.png" class="bbCodeImage LbImage" alt="[​IMG]" data-url="https://i.postimg.cc/87FYCRd8/vlcsnap-2023-06-18-11h42m09s555.png"></a> <a href="https://postimg.cc/LhTwQ64W" target="_blank" class="externalLink" rel="nofollow"><img src="https://i.postimg.cc/LhTwQ64W/vlcsnap-2023-06-18-11h48m41s746.png" class="bbCodeImage LbImage" alt="[​IMG]" data-url="https://i.postimg.cc/LhTwQ64W/vlcsnap-2023-06-18-11h48m41s746.png"></a> <a href="https://postimg.cc/7fZcF8fZ" target="_blank" class="externalLink" rel="nofollow"><img src="https://i.postimg.cc/7fZcF8fZ/vlcsnap-2023-06-18-11h52m19s380.png" class="bbCodeImage LbImage" alt="[​IMG]" data-url="https://i.postimg.cc/7fZcF8fZ/vlcsnap-2023-06-18-11h52m19s380.png"></a> <a href="https://postimg.cc/8jX3DK6B" target="_blank" class="externalLink" rel="nofollow"><img src="https://i.postimg.cc/8jX3DK6B/vlcsnap-2023-06-18-11h56m20s434.png" class="bbCodeImage LbImage" alt="[​IMG]" data-url="https://i.postimg.cc/8jX3DK6B/vlcsnap-2023-06-18-11h56m20s434.png"></a> <br>
<br>
Go_A <br>
Robbie Williams <br>
Queens Of The Stone Age <br>
The Script <br>
Dadi Freyr<br>
Tove Lo<br>
<br>
​</div><br>
<div class="bbCodeBlock bbCodeCode">
<div class="type">Code:</div>
<pre>General
ID                                       : 1 (0x1)
Complete name                            : D:\Robbie Williams - Live @ Pinkpop 2023 HDTV H264 1080i MP2-ilya2129.ts
Format                                   : MPEG-TS
File size                                : 3.32 GiB
Duration                                 : 1 h 38 min
Overall bit rate mode                    : Variable
Overall bit rate                         : 4 825 kb/s
Frame rate                               : 25.000 FPS

Video
ID                                       : 302 (0x12E)
Menu ID                                  : 1 (0x1)
Format                                   : AVC
Format/Info                              : Advanced Video Codec
Format profile                           : High@L4
Format settings                          : CABAC / 4 Ref Frames
Format settings, CABAC                   : Yes
Format settings, Reference frames        : 4 frames
Format settings, GOP                     : M=4, N=32
Codec ID                                 : 27
Duration                                 : 1 h 38 min
Bit rate                                 : 4 328 kb/s
Width                                    : 1 920 pixels
Height                                   : 1 080 pixels
Display aspect ratio                     : 16:9
Frame rate                               : 25.000 FPS
Standard                                 : Component
Color space                              : YUV
Chroma subsampling                       : 4:2:0
Bit depth                                : 8 bits
Scan type                                : MBAFF
Scan type, store method                  : Interleaved fields
Scan order                               : Top Field First
Bits/(Pixel*Frame)                       : 0.083
Stream size                              : 2.98 GiB (90%)
Color range                              : Limited
Color primaries                          : BT.709
Transfer characteristics                 : BT.709
Matrix coefficients                      : BT.709

Audio
ID                                       : 303 (0x12F)
Menu ID                                  : 1 (0x1)
Format                                   : MPEG Audio
Format version                           : Version 1
Format profile                           : Layer 2
Codec ID                                 : 3
Duration                                 : 1 h 38 min
Bit rate mode                            : Constant
Bit rate                                 : 256 kb/s
Channel(s)                               : 2 channels
Sampling rate                            : 48.0 kHz
Frame rate                               : 41.667 FPS (1152 SPF)
Compression mode                         : Lossy
Delay relative to video                  : -40 ms
Stream size                              : 180 MiB (5%)
Language                                 : Dutch

Text
ID                                       : 310 (0x136)-888
Menu ID                                  : 1 (0x1)
Format                                   : Teletext Subtitle
Language                                 : Dutch
Language, more info                      : For hearing impaired people

Other
ID                                       : 310 (0x136)-100
Menu ID                                  : 1 (0x1)
Format                                   : Teletext
Language                                 : Dutch

</pre>
</div>
<div class="bbCodeBlock bbCodeVfcHH HiddenContent">
<div class="attribution type">Hidden Content:</div>
<blockquote>You must reply before you can see the hidden data contained here.</blockquote>
</div>
<div class="messageTextEndMarker">&nbsp;</div>
</blockquote>
</article>]]></description>
                <author><![CDATA[ilya2129]]></author>
                </item>

                
                <item>
                <title><![CDATA[【Requests】[REQ AUD] - I'm Not Human XXXTENTACION &amp; Lil Uzi Vert]]></title>
                <link><![CDATA[https://sharemania.us/threads/im-not-human-xxxtentacion-lil-uzi-vert.222889/]]></link>
                <description><![CDATA[<article>
<blockquote class="messageText SelectQuoteContainer ugc baseHtml">
I'm looking for this single: <a href="https://www.qobuz.com/es-es/album/im-not-human-xxxtentacion-lil-uzi-vert/yomymvhfznm7a" target="_blank" class="externalLink" rel="nofollow">https://www.qobuz.com/es-es/album/im-not-human-xxxtentacion-lil-uzi-vert/yomymvhfznm7a</a><br>
Has someone have it, thanks!
<div class="messageTextEndMarker">&nbsp;</div>
</blockquote>
</article>]]></description>
                <author><![CDATA[AKDP90]]></author>
                </item>

                </channel></rss>